<svg width="680" height="470" viewBox="0 0 680 470" xmlns="http://www.w3.org/2000/svg" font-family="Helvetica, Arial, sans-serif">
<defs><marker id="arrow" viewBox="0 0 10 10" refX="8" refY="5" markerWidth="6" markerHeight="6" orient="auto-start-reverse"><path d="M2 1L8 5L2 9" fill="none" stroke="#5F5E5A" stroke-width="1.5" stroke-linecap="round" stroke-linejoin="round"/></marker></defs>
<rect x="0" y="0" width="680" height="470" fill="#FFFFFF"/>
<text x="340" y="24" text-anchor="middle" font-size="15" font-weight="bold" fill="#2C2C2A">DTCC CTM — confirmation and affirmation (US, T+1)</text>

<rect x="60" y="44" width="250" height="56" rx="8" fill="#EEEDFE" stroke="#534AB7" stroke-width="1"/>
<text x="185" y="66" text-anchor="middle" font-size="14" font-weight="bold" fill="#3C3489">Executing broker</text>
<text x="185" y="86" text-anchor="middle" font-size="12" fill="#534AB7">Submits confirmation</text>

<rect x="370" y="44" width="250" height="56" rx="8" fill="#EEEDFE" stroke="#534AB7" stroke-width="1"/>
<text x="495" y="66" text-anchor="middle" font-size="14" font-weight="bold" fill="#3C3489">Buy-side / fund</text>
<text x="495" y="86" text-anchor="middle" font-size="12" fill="#534AB7">Submits trade + allocations</text>

<path d="M185 100 L185 134 L340 134 L340 160" fill="none" stroke="#5F5E5A" stroke-width="1.5" marker-end="url(#arrow)"/>
<path d="M495 100 L495 134 L340 134" fill="none" stroke="#5F5E5A" stroke-width="1.5"/>

<rect x="210" y="164" width="260" height="56" rx="8" fill="#E1F5EE" stroke="#0F6E56" stroke-width="1"/>
<text x="340" y="186" text-anchor="middle" font-size="14" font-weight="bold" fill="#085041">CTM central matching</text>
<text x="340" y="206" text-anchor="middle" font-size="12" fill="#0F6E56">Compares both versions field by field</text>
<line x1="340" y1="220" x2="340" y2="258" stroke="#5F5E5A" stroke-width="1.5" marker-end="url(#arrow)"/>

<rect x="210" y="264" width="260" height="56" rx="8" fill="#E1F5EE" stroke="#0F6E56" stroke-width="1"/>
<text x="340" y="286" text-anchor="middle" font-size="14" font-weight="bold" fill="#085041">Affirmation</text>
<text x="340" y="306" text-anchor="middle" font-size="12" fill="#0F6E56">TradeSuite ID, M2i auto-affirm, 9pm ET on T</text>
<line x1="340" y1="320" x2="340" y2="358" stroke="#5F5E5A" stroke-width="1.5" marker-end="url(#arrow)"/>

<rect x="210" y="364" width="260" height="56" rx="8" fill="#F1EFE8" stroke="#5F5E5A" stroke-width="1"/>
<text x="340" y="386" text-anchor="middle" font-size="14" font-weight="bold" fill="#2C2C2A">DTC settlement</text>
<text x="340" y="406" text-anchor="middle" font-size="12" fill="#5F5E5A">Settles T+1</text>
</svg>
