<svg width="680" height="560" viewBox="0 0 680 560" xmlns="http://www.w3.org/2000/svg" font-family="Helvetica, Arial, sans-serif">
<defs><marker id="arrow" viewBox="0 0 10 10" refX="8" refY="5" markerWidth="6" markerHeight="6" orient="auto-start-reverse"><path d="M2 1L8 5L2 9" fill="none" stroke="#5F5E5A" stroke-width="1.5" stroke-linecap="round" stroke-linejoin="round"/></marker></defs>
<rect x="0" y="0" width="680" height="560" fill="#FFFFFF"/>
<text x="340" y="24" text-anchor="middle" font-size="15" font-weight="bold" fill="#2C2C2A">Trade lifecycle — order to booking (trade date)</text>

<rect x="210" y="44" width="260" height="56" rx="8" fill="#EEEDFE" stroke="#534AB7" stroke-width="1"/>
<text x="340" y="66" text-anchor="middle" font-size="14" font-weight="bold" fill="#3C3489">PM / trader places order</text>
<text x="340" y="86" text-anchor="middle" font-size="12" fill="#534AB7">Via OMS / EMS</text>
<line x1="340" y1="100" x2="340" y2="138" stroke="#5F5E5A" stroke-width="1.5" marker-end="url(#arrow)"/>

<rect x="210" y="144" width="260" height="56" rx="8" fill="#EEEDFE" stroke="#534AB7" stroke-width="1"/>
<text x="340" y="166" text-anchor="middle" font-size="14" font-weight="bold" fill="#3C3489">Executing broker / venue</text>
<text x="340" y="186" text-anchor="middle" font-size="12" fill="#534AB7">Algo, exchange, dark pool</text>
<line x1="340" y1="200" x2="340" y2="238" stroke="#5F5E5A" stroke-width="1.5" marker-end="url(#arrow)"/>

<rect x="210" y="244" width="260" height="56" rx="8" fill="#EEEDFE" stroke="#534AB7" stroke-width="1"/>
<text x="340" y="266" text-anchor="middle" font-size="14" font-weight="bold" fill="#3C3489">Fills come back</text>
<text x="340" y="286" text-anchor="middle" font-size="12" fill="#534AB7">FIX execution reports / drop copy</text>
<line x1="340" y1="300" x2="340" y2="338" stroke="#5F5E5A" stroke-width="1.5" marker-end="url(#arrow)"/>

<rect x="210" y="344" width="260" height="56" rx="8" fill="#E1F5EE" stroke="#0F6E56" stroke-width="1"/>
<text x="340" y="366" text-anchor="middle" font-size="14" font-weight="bold" fill="#085041">Trade capture / booking</text>
<text x="340" y="386" text-anchor="middle" font-size="12" fill="#0F6E56">Fills aggregated, average price</text>
<line x1="340" y1="400" x2="340" y2="438" stroke="#5F5E5A" stroke-width="1.5" marker-end="url(#arrow)"/>

<rect x="210" y="444" width="260" height="56" rx="8" fill="#E1F5EE" stroke="#0F6E56" stroke-width="1"/>
<text x="340" y="466" text-anchor="middle" font-size="14" font-weight="bold" fill="#085041">Enrichment + allocation</text>
<text x="340" y="486" text-anchor="middle" font-size="12" fill="#0F6E56">Split block across funds / accounts</text>

<rect x="180" y="526" width="14" height="14" rx="3" fill="#EEEDFE" stroke="#534AB7" stroke-width="1"/>
<text x="202" y="537" font-size="12" fill="#444441">Front office</text>
<rect x="300" y="526" width="14" height="14" rx="3" fill="#E1F5EE" stroke="#0F6E56" stroke-width="1"/>
<text x="322" y="537" font-size="12" fill="#444441">Middle office</text>
</svg>
